<mxfile host="app.diagrams.net" modified="2020-05-19T03:48:43.181Z" agent="5.0 (Windows NT 10.0; Win64; x64) AppleWebKit/537.36 (KHTML, like Gecko) Chrome/81.0.4044.113 Safari/537.36" etag="N0c-pSyWU5K06l82N36P" version="13.1.2" type="github" pages="2">
  <diagram name="Page-1" id="9361dd3d-8414-5efd-6122-117bd74ce7a7">
    <mxGraphModel dx="1422" dy="721" grid="1" gridSize="10" guides="1" tooltips="1" connect="1" arrows="1" fold="1" page="0" pageScale="1.5" pageWidth="826" pageHeight="1169" background="#ffffff" math="0" shadow="0">
      <root>
        <mxCell id="0" />
        <mxCell id="1" parent="0" />
        <mxCell id="69" value="" style="fillColor=#DEE8FF;strokeColor=none" parent="1" vertex="1">
          <mxGeometry x="40" y="10" width="1570" height="800" as="geometry" />
        </mxCell>
        <mxCell id="20" value="" style="fillColor=#CCD5EB" parent="1" vertex="1">
          <mxGeometry x="140" y="410" width="1460" height="390" as="geometry" />
        </mxCell>
        <mxCell id="81" value="" style="edgeStyle=elbowEdgeStyle;elbow=horizontal;endArrow=none;dashed=1" parent="1" edge="1">
          <mxGeometry x="1460" y="437.8935185185186" width="100" height="100" as="geometry">
            <mxPoint x="1354.5" y="610" as="sourcePoint" />
            <mxPoint x="1354.5" y="770" as="targetPoint" />
          </mxGeometry>
        </mxCell>
        <mxCell id="2" value="" style="fillColor=#CC4125;strokeColor=#660000" parent="1" vertex="1">
          <mxGeometry x="200" y="150" width="10" height="130" as="geometry" />
        </mxCell>
        <mxCell id="3" value="validate()" style="edgeStyle=none;verticalLabelPosition=top;verticalAlign=bottom;labelPosition=left;align=right" parent="1" edge="1">
          <mxGeometry x="110" y="49.5" width="100" height="100" as="geometry">
            <mxPoint x="110" y="149.5" as="sourcePoint" />
            <mxPoint x="200" y="149.5" as="targetPoint" />
          </mxGeometry>
        </mxCell>
        <mxCell id="4" value=":dialog" style="shadow=1;fillColor=#A2C4C9;strokeColor=none" parent="1" vertex="1">
          <mxGeometry x="152.5" y="60" width="105" height="50" as="geometry" />
        </mxCell>
        <mxCell id="6" value="" style="fillColor=#CC4125;strokeColor=#660000" parent="1" vertex="1">
          <mxGeometry x="342.5" y="180" width="10" height="80" as="geometry" />
        </mxCell>
        <mxCell id="7" value="&lt;&lt;javascript&gt;&gt;&#xa;:Comments" style="shadow=1;fillColor=#A2C4C9;strokeColor=none" parent="1" vertex="1">
          <mxGeometry x="295" y="60" width="105" height="50" as="geometry" />
        </mxCell>
        <mxCell id="8" value="" style="edgeStyle=none;endArrow=none;dashed=1" parent="1" source="7" target="6" edge="1">
          <mxGeometry x="272.3350694444445" y="165" width="100" height="100" as="geometry">
            <mxPoint x="347.2588734567901" y="110" as="sourcePoint" />
            <mxPoint x="347.5761959876544" y="165" as="targetPoint" />
          </mxGeometry>
        </mxCell>
        <mxCell id="9" value="validate()" style="edgeStyle=none;verticalLabelPosition=top;verticalAlign=bottom" parent="1" edge="1">
          <mxGeometry x="220" y="92" width="100" height="100" as="geometry">
            <mxPoint x="210" y="179.5" as="sourcePoint" />
            <mxPoint x="340" y="179.5" as="targetPoint" />
          </mxGeometry>
        </mxCell>
        <mxCell id="11" value="" style="edgeStyle=none;verticalLabelPosition=top;verticalAlign=bottom;endArrow=none;startArrow=classic;dashed=1" parent="1" edge="1">
          <mxGeometry x="220" y="172.25887345679013" width="100" height="100" as="geometry">
            <mxPoint x="210" y="259.7588734567901" as="sourcePoint" />
            <mxPoint x="340" y="259.7588734567901" as="targetPoint" />
          </mxGeometry>
        </mxCell>
        <mxCell id="12" value="" style="edgeStyle=none;verticalLabelPosition=top;verticalAlign=bottom;labelPosition=left;align=right;endArrow=none;startArrow=classic;dashed=1" parent="1" edge="1">
          <mxGeometry x="110" y="179.75887345679013" width="100" height="100" as="geometry">
            <mxPoint x="110" y="279.7588734567901" as="sourcePoint" />
            <mxPoint x="200" y="279.7588734567901" as="targetPoint" />
          </mxGeometry>
        </mxCell>
        <mxCell id="13" value="&lt;&lt;create&gt;&gt;" style="edgeStyle=none;verticalLabelPosition=top;verticalAlign=bottom;dashed=1" parent="1" edge="1">
          <mxGeometry x="385.45524691358025" y="113.91550925925924" width="100" height="100" as="geometry">
            <mxPoint x="352.5" y="201.20563271604937" as="sourcePoint" />
            <mxPoint x="462.5" y="201.20563271604937" as="targetPoint" />
          </mxGeometry>
        </mxCell>
        <mxCell id="15" value="&lt;&lt;javascript&gt;&gt;&#xa;:Proxy" style="shadow=1;fillColor=#A2C4C9;strokeColor=none" parent="1" vertex="1">
          <mxGeometry x="462.2839506172839" y="169.99999999999997" width="105" height="50" as="geometry" />
        </mxCell>
        <mxCell id="16" value="" style="edgeStyle=none;endArrow=none" parent="1" source="15" target="17" edge="1">
          <mxGeometry x="437.042824074074" y="270" width="100" height="100" as="geometry">
            <mxPoint x="514.542824074074" y="219.99999999999997" as="sourcePoint" />
            <mxPoint x="514.542824074074" y="239.99999999999997" as="targetPoint" />
          </mxGeometry>
        </mxCell>
        <mxCell id="17" value="" style="fillColor=#CC4125;strokeColor=#660000" parent="1" vertex="1">
          <mxGeometry x="509.7839506172839" y="244.3942901234568" width="10" height="130" as="geometry" />
        </mxCell>
        <mxCell id="19" value="&lt;&lt;ajax&gt;&gt;" style="edgeStyle=elbowEdgeStyle;elbow=vertical;verticalLabelPosition=top;verticalAlign=bottom" parent="1" source="6" target="17" edge="1">
          <mxGeometry x="350" y="290" width="100" height="100" as="geometry">
            <mxPoint x="350" y="390" as="sourcePoint" />
            <mxPoint x="450" y="290" as="targetPoint" />
          </mxGeometry>
        </mxCell>
        <mxCell id="21" value="" style="fillColor=#CC4125;strokeColor=#660000" parent="1" vertex="1">
          <mxGeometry x="670" y="269.3942901234568" width="10" height="80" as="geometry" />
        </mxCell>
        <mxCell id="22" value="&lt;&lt;servlet&gt;&gt;&#xa;:CVSServlet" style="shadow=1;fillColor=#A2C4C9;strokeColor=none" parent="1" vertex="1">
          <mxGeometry x="622.5" y="60" width="105" height="50" as="geometry" />
        </mxCell>
        <mxCell id="23" value="" style="edgeStyle=none;endArrow=none;dashed=1" parent="1" source="22" target="21" edge="1">
          <mxGeometry x="614.4878472222224" y="174.99999999999997" width="100" height="100" as="geometry">
            <mxPoint x="674.6527777777778" y="110" as="sourcePoint" />
            <mxPoint x="674.6527777777778" y="260" as="targetPoint" />
          </mxGeometry>
        </mxCell>
        <mxCell id="24" value="&lt;&lt;service&gt;&gt;&#xa;:CVSService" style="shadow=1;fillColor=#A2C4C9;strokeColor=none" parent="1" vertex="1">
          <mxGeometry x="750" y="60" width="105" height="50" as="geometry" />
        </mxCell>
        <mxCell id="25" value="" style="edgeStyle=none;endArrow=none;dashed=1" parent="1" source="24" target="26" edge="1">
          <mxGeometry x="727.3350694444446" y="165" width="100" height="100" as="geometry">
            <mxPoint x="802.2588734567901" y="110" as="sourcePoint" />
            <mxPoint x="802.5761959876544" y="165" as="targetPoint" />
          </mxGeometry>
        </mxCell>
        <mxCell id="26" value="" style="fillColor=#CC4125;strokeColor=#660000" parent="1" vertex="1">
          <mxGeometry x="797.4999999999999" y="289.3942901234568" width="10" height="40" as="geometry" />
        </mxCell>
        <mxCell id="27" value="&lt;&lt;ajax&gt;&gt;" style="edgeStyle=elbowEdgeStyle;elbow=vertical;verticalLabelPosition=top;verticalAlign=bottom" parent="1" source="17" target="21" edge="1">
          <mxGeometry x="540" y="270" width="100" height="100" as="geometry">
            <mxPoint x="540" y="370" as="sourcePoint" />
            <mxPoint x="640" y="270" as="targetPoint" />
            <Array as="points">
              <mxPoint x="590" y="270" />
            </Array>
          </mxGeometry>
        </mxCell>
        <mxCell id="28" value="errors" style="edgeStyle=elbowEdgeStyle;elbow=vertical;dashed=1;verticalLabelPosition=bottom;verticalAlign=top" parent="1" source="21" target="17" edge="1">
          <mxGeometry x="550" y="280" width="100" height="100" as="geometry">
            <mxPoint x="529.7839506172838" y="280" as="sourcePoint" />
            <mxPoint x="680" y="280" as="targetPoint" />
            <Array as="points">
              <mxPoint x="593" y="348" />
            </Array>
          </mxGeometry>
        </mxCell>
        <mxCell id="30" value="&lt;&lt;javascript&gt;&gt;&#xa;:GimqRequest&#xa;Batch" style="shadow=1;fillColor=#A2C4C9;strokeColor=none" parent="1" vertex="1">
          <mxGeometry x="952.5" y="60" width="105" height="50" as="geometry" />
        </mxCell>
        <mxCell id="33" value="" style="edgeStyle=elbowEdgeStyle;elbow=horizontal;endArrow=none;dashed=1" parent="1" source="4" target="2" edge="1">
          <mxGeometry x="230.00000000000003" y="310" width="100" height="100" as="geometry">
            <mxPoint x="230.00000000000003" y="410" as="sourcePoint" />
            <mxPoint x="330" y="310" as="targetPoint" />
          </mxGeometry>
        </mxCell>
        <mxCell id="34" value="validate()" style="edgeStyle=elbowEdgeStyle;elbow=vertical;verticalLabelPosition=top;verticalAlign=bottom" parent="1" edge="1">
          <mxGeometry x="550" y="261.7361111111111" width="100" height="100" as="geometry">
            <mxPoint x="680" y="291.1304012345679" as="sourcePoint" />
            <mxPoint x="797.4999999999999" y="291.1304012345679" as="targetPoint" />
            <Array as="points" />
          </mxGeometry>
        </mxCell>
        <mxCell id="35" value="errors" style="edgeStyle=elbowEdgeStyle;elbow=vertical;dashed=1;verticalLabelPosition=bottom;verticalAlign=top" parent="1" edge="1">
          <mxGeometry x="560" y="309.65277777777777" width="100" height="100" as="geometry">
            <mxPoint x="797.4999999999999" y="329.0470679012346" as="sourcePoint" />
            <mxPoint x="680" y="329.0470679012346" as="targetPoint" />
            <Array as="points" />
          </mxGeometry>
        </mxCell>
        <mxCell id="38" value="" style="edgeStyle=elbowEdgeStyle;elbow=horizontal;endArrow=none;dashed=1" parent="1" edge="1">
          <mxGeometry x="932.2588734567901" y="240" width="100" height="100" as="geometry">
            <mxPoint x="802.2588734567901" y="329.3942901234568" as="sourcePoint" />
            <mxPoint x="802.2588734567901" y="370" as="targetPoint" />
            <Array as="points">
              <mxPoint x="802.2588734567901" y="350" />
            </Array>
          </mxGeometry>
        </mxCell>
        <mxCell id="39" value="" style="ellipse;fillColor=none" parent="1" vertex="1">
          <mxGeometry x="802.5000000000001" y="304.3942901234568" width="9.999999999999886" height="10" as="geometry" />
        </mxCell>
        <mxCell id="40" value=" - user&#xa; validation&#xa;&#xa; - password check" style="shape=note;align=left" parent="1" vertex="1">
          <mxGeometry x="829.9729938271605" y="180.17361111111111" width="120.02700617283949" height="109.82638888888889" as="geometry" />
        </mxCell>
        <mxCell id="41" value="" style="edgeStyle=none;endArrow=none;dashed=1" parent="1" source="40" target="39" edge="1">
          <mxGeometry x="1030" y="180" width="100" height="100" as="geometry">
            <mxPoint x="1030" y="280" as="sourcePoint" />
            <mxPoint x="1130" y="180" as="targetPoint" />
          </mxGeometry>
        </mxCell>
        <mxCell id="42" value="" style="fillColor=#CC4125;strokeColor=#660000" parent="1" vertex="1">
          <mxGeometry x="200" y="360" width="10" height="220" as="geometry" />
        </mxCell>
        <mxCell id="43" value="             &lt;&lt;callback&gt;&gt;                                " style="edgeStyle=elbowEdgeStyle;elbow=vertical;dashed=0;verticalLabelPosition=top;verticalAlign=bottom;align=right" parent="1" source="17" target="42" edge="1">
          <mxGeometry x="190" y="329.75887345679007" width="100" height="100" as="geometry">
            <mxPoint x="500" y="310" as="sourcePoint" />
            <mxPoint x="220" y="370" as="targetPoint" />
            <Array as="points" />
          </mxGeometry>
        </mxCell>
        <mxCell id="44" value="" style="edgeStyle=none;dashed=1;endArrow=none" parent="1" source="2" target="42" edge="1">
          <mxGeometry x="50" y="300" width="100" height="100" as="geometry">
            <mxPoint x="50" y="400" as="sourcePoint" />
            <mxPoint x="150" y="300" as="targetPoint" />
          </mxGeometry>
        </mxCell>
        <mxCell id="46" value="" style="edgeStyle=elbowEdgeStyle;elbow=vertical;endArrow=none" parent="1" source="42" edge="1">
          <mxGeometry x="60" y="310" width="100" height="100" as="geometry">
            <mxPoint x="60" y="410" as="sourcePoint" />
            <mxPoint x="150" y="360" as="targetPoint" />
          </mxGeometry>
        </mxCell>
        <mxCell id="47" value="{100..600ms}" style="edgeStyle=elbowEdgeStyle;elbow=horizontal;startArrow=open;endArrow=open;labelPosition=left;align=right" parent="1" edge="1">
          <mxGeometry x="61.20563271604938" y="290" width="100" height="100" as="geometry">
            <mxPoint x="181.20563271604937" y="280" as="sourcePoint" />
            <mxPoint x="181.20563271604937" y="360" as="targetPoint" />
          </mxGeometry>
        </mxCell>
        <mxCell id="48" value="" style="fillColor=#CC4125;strokeColor=#660000" parent="1" vertex="1">
          <mxGeometry x="342.5" y="464.1666666666667" width="10" height="95.83333333333331" as="geometry" />
        </mxCell>
        <mxCell id="49" value="" style="fillColor=#CC4125;strokeColor=#660000" parent="1" vertex="1">
          <mxGeometry x="1000" y="468.3333333333333" width="10" height="81.66666666666669" as="geometry" />
        </mxCell>
        <mxCell id="50" value="" style="edgeStyle=none;endArrow=none;dashed=1" parent="1" source="30" target="49" edge="1">
          <mxGeometry x="956.5711805555559" y="205" width="100" height="100" as="geometry">
            <mxPoint x="1031.7361111111113" y="150" as="sourcePoint" />
            <mxPoint x="1031.7361111111113" y="329.3942901234568" as="targetPoint" />
          </mxGeometry>
        </mxCell>
        <mxCell id="51" value="post_comments()" style="edgeStyle=elbowEdgeStyle;elbow=vertical;verticalLabelPosition=top;verticalAlign=bottom" parent="1" edge="1">
          <mxGeometry x="212.5" y="469.58333333333337" width="100" height="100" as="geometry">
            <mxPoint x="210" y="469.58333333333337" as="sourcePoint" />
            <mxPoint x="342.5" y="469.58333333333337" as="targetPoint" />
            <Array as="points" />
          </mxGeometry>
        </mxCell>
        <mxCell id="52" value="" style="edgeStyle=none;endArrow=none;dashed=1" parent="1" source="6" target="48" edge="1">
          <mxGeometry x="376.5711805555559" y="339.6971450617284" width="100" height="100" as="geometry">
            <mxPoint x="451.7361111111112" y="284.6971450617284" as="sourcePoint" />
            <mxPoint x="451.7361111111112" y="464.0914351851852" as="targetPoint" />
          </mxGeometry>
        </mxCell>
        <mxCell id="53" value="BeginRequest()" style="edgeStyle=elbowEdgeStyle;elbow=vertical;verticalLabelPosition=top;verticalAlign=bottom" parent="1" edge="1">
          <mxGeometry x="530" y="436.8055555555556" width="100" height="100" as="geometry">
            <mxPoint x="352.5" y="477.56944444444446" as="sourcePoint" />
            <mxPoint x="1000" y="477.56944444444446" as="targetPoint" />
            <Array as="points" />
          </mxGeometry>
        </mxCell>
        <mxCell id="54" value="" style="edgeStyle=elbowEdgeStyle;elbow=vertical;dashed=1;verticalLabelPosition=bottom;verticalAlign=top" parent="1" edge="1">
          <mxGeometry x="530" y="549.0779320987654" width="100" height="100" as="geometry">
            <mxPoint x="1000" y="541.7361111111111" as="sourcePoint" />
            <mxPoint x="352.49999999999994" y="541.7361111111111" as="targetPoint" />
            <Array as="points" />
          </mxGeometry>
        </mxCell>
        <mxCell id="55" value="&lt;&lt;javascript&gt;&gt;&#xa;:Proxy" style="shadow=1;fillColor=#A2C4C9;strokeColor=none" parent="1" vertex="1">
          <mxGeometry x="1090" y="462.08333333333337" width="105" height="50" as="geometry" />
        </mxCell>
        <mxCell id="56" value="" style="edgeStyle=none;endArrow=none;dashed=1" parent="1" source="55" target="57" edge="1">
          <mxGeometry x="1204.0711805555559" y="380.08680555555554" width="100" height="100" as="geometry">
            <mxPoint x="1279.2361111111113" y="325.08680555555554" as="sourcePoint" />
            <mxPoint x="1350" y="445.08680555555554" as="targetPoint" />
          </mxGeometry>
        </mxCell>
        <mxCell id="57" value="" style="fillColor=#CC4125;strokeColor=#660000" parent="1" vertex="1">
          <mxGeometry x="1137.5" y="530" width="10" height="90" as="geometry" />
        </mxCell>
        <mxCell id="58" value="" style="fillColor=#CC4125;strokeColor=#660000" parent="1" vertex="1">
          <mxGeometry x="1350" y="540" width="10" height="70" as="geometry" />
        </mxCell>
        <mxCell id="60" value="&lt;&lt;create&gt;&gt;" style="edgeStyle=elbowEdgeStyle;elbow=vertical;verticalLabelPosition=top;verticalAlign=bottom;dashed=1" parent="1" source="49" target="55" edge="1">
          <mxGeometry x="901.25" y="322.5" width="100" height="100" as="geometry">
            <mxPoint x="1031.25" y="351.8942901234568" as="sourcePoint" />
            <mxPoint x="1148.75" y="351.8942901234568" as="targetPoint" />
            <Array as="points" />
          </mxGeometry>
        </mxCell>
        <mxCell id="61" value="&lt;&lt;ajax&gt;&gt;" style="edgeStyle=elbowEdgeStyle;elbow=vertical;verticalLabelPosition=top;verticalAlign=bottom" parent="1" source="49" target="57" edge="1">
          <mxGeometry x="1065" y="359.5" width="100" height="100" as="geometry">
            <mxPoint x="1044.7839506172838" y="359.5" as="sourcePoint" />
            <mxPoint x="1195" y="359.5" as="targetPoint" />
            <Array as="points" />
          </mxGeometry>
        </mxCell>
        <mxCell id="62" value="postComments()" style="edgeStyle=elbowEdgeStyle;elbow=vertical;verticalLabelPosition=top;verticalAlign=bottom" parent="1" edge="1">
          <mxGeometry x="1225" y="309.5" width="100" height="100" as="geometry">
            <mxPoint x="1147.5" y="542.5" as="sourcePoint" />
            <mxPoint x="1350" y="542.5" as="targetPoint" />
            <Array as="points" />
          </mxGeometry>
        </mxCell>
        <mxCell id="63" value="&lt;&lt;json&gt;&gt;" style="edgeStyle=elbowEdgeStyle;elbow=vertical;dashed=1;verticalLabelPosition=bottom;verticalAlign=top" parent="1" edge="1">
          <mxGeometry x="1075" y="396" width="100" height="100" as="geometry">
            <mxPoint x="1350" y="606.5" as="sourcePoint" />
            <mxPoint x="1147.5" y="606.5" as="targetPoint" />
            <Array as="points" />
          </mxGeometry>
        </mxCell>
        <mxCell id="64" value="&lt;&lt;service&gt;&gt;&#xa;:GimqService" style="shadow=1;fillColor=#A2C4C9;strokeColor=none" parent="1" vertex="1">
          <mxGeometry x="1302.5" y="60" width="105" height="50" as="geometry" />
        </mxCell>
        <mxCell id="65" value="" style="edgeStyle=none;endArrow=none;dashed=1" parent="1" source="64" target="58" edge="1">
          <mxGeometry x="1174.0711805555559" y="210" width="100" height="100" as="geometry">
            <mxPoint x="1222.5" y="115" as="sourcePoint" />
            <mxPoint x="1222.5" y="445" as="targetPoint" />
          </mxGeometry>
        </mxCell>
        <mxCell id="66" value="" style="fillColor=#CC4125;strokeColor=#660000" parent="1" vertex="1">
          <mxGeometry x="200" y="600" width="10" height="130" as="geometry" />
        </mxCell>
        <mxCell id="67" value="" style="edgeStyle=elbowEdgeStyle;elbow=vertical;dashed=1;verticalLabelPosition=bottom;verticalAlign=top" parent="1" edge="1">
          <mxGeometry x="507.50000000000006" y="664.3418209876543" width="100" height="100" as="geometry">
            <mxPoint x="342.5" y="549.5" as="sourcePoint" />
            <mxPoint x="210" y="549.5" as="targetPoint" />
            <Array as="points" />
          </mxGeometry>
        </mxCell>
        <mxCell id="68" value="&lt;&lt;callback&gt;&gt;" style="edgeStyle=elbowEdgeStyle;elbow=vertical;dashed=1;verticalLabelPosition=bottom;verticalAlign=bottom" parent="1" source="57" target="66" edge="1">
          <mxGeometry x="540" y="559.0779320987654" width="100" height="100" as="geometry">
            <mxPoint x="1010" y="551.7361111111111" as="sourcePoint" />
            <mxPoint x="362.49999999999994" y="551.7361111111111" as="targetPoint" />
            <Array as="points" />
          </mxGeometry>
        </mxCell>
        <mxCell id="71" value="rt submit_changes" style="rounded=1;fontStyle=1;fillColor=#FFD966;strokeColor=none" parent="1" vertex="1">
          <mxGeometry x="50" y="20" width="150" height="30" as="geometry" />
        </mxCell>
        <mxCell id="72" value="opt" style="rounded=1;fontStyle=1;fillColor=#FFD966;strokeColor=none" parent="1" vertex="1">
          <mxGeometry x="152.5" y="420" width="87.5" height="30" as="geometry" />
        </mxCell>
        <mxCell id="74" value="Handle errors from Gimq" style="fillColor=#BFC8DB" parent="1" vertex="1">
          <mxGeometry x="190" y="625" width="310" height="60.55555555555554" as="geometry" />
        </mxCell>
        <mxCell id="75" value="ref" style="rounded=1;fontStyle=1;fillColor=#FFD966;strokeColor=none" parent="1" vertex="1">
          <mxGeometry x="196.25" y="632.8935185185186" width="53.75" height="25" as="geometry" />
        </mxCell>
        <mxCell id="76" value="" style="align=left;fillColor=#BFC8DB" parent="1" vertex="1">
          <mxGeometry x="189.99999999999997" y="699.7222222222223" width="1201.1944444444443" height="60.55555555555554" as="geometry" />
        </mxCell>
        <mxCell id="77" value="ref" style="rounded=1;fontStyle=1;fillColor=#FFD966;strokeColor=none" parent="1" vertex="1">
          <mxGeometry x="196.24999999999997" y="707.6157407407409" width="53.75" height="25" as="geometry" />
        </mxCell>
        <mxCell id="78" value="Request all changes" style="text;align=left" parent="1" vertex="1">
          <mxGeometry x="268.05555555555554" y="720.1157407407408" width="351.80555555555554" height="26" as="geometry" />
        </mxCell>
        <mxCell id="82" value="" style="edgeStyle=elbowEdgeStyle;elbow=vertical;endArrow=none" parent="1" edge="1">
          <mxGeometry x="59.999999999999986" y="419.7106481481482" width="100" height="100" as="geometry">
            <mxPoint x="200" y="469.7106481481482" as="sourcePoint" />
            <mxPoint x="149.99999999999997" y="469.7106481481482" as="targetPoint" />
          </mxGeometry>
        </mxCell>
        <mxCell id="83" value="" style="edgeStyle=elbowEdgeStyle;elbow=vertical;endArrow=none" parent="1" edge="1">
          <mxGeometry x="60" y="499.71064814814815" width="100" height="100" as="geometry">
            <mxPoint x="200.00000000000003" y="549.7106481481482" as="sourcePoint" />
            <mxPoint x="150" y="549.7106481481482" as="targetPoint" />
          </mxGeometry>
        </mxCell>
        <mxCell id="84" value="" style="edgeStyle=elbowEdgeStyle;elbow=vertical;endArrow=none" parent="1" edge="1">
          <mxGeometry x="59.999999999999986" y="559.7106481481482" width="100" height="100" as="geometry">
            <mxPoint x="200" y="609.7106481481482" as="sourcePoint" />
            <mxPoint x="149.99999999999997" y="609.7106481481482" as="targetPoint" />
          </mxGeometry>
        </mxCell>
        <mxCell id="85" value="" style="edgeStyle=elbowEdgeStyle;elbow=vertical;endArrow=none" parent="1" edge="1">
          <mxGeometry x="49.99999999999999" y="649.4328703703704" width="100" height="100" as="geometry">
            <mxPoint x="190.00000000000003" y="699.4328703703704" as="sourcePoint" />
            <mxPoint x="140" y="699.4328703703704" as="targetPoint" />
          </mxGeometry>
        </mxCell>
        <mxCell id="86" value="" style="edgeStyle=elbowEdgeStyle;elbow=vertical;endArrow=none" parent="1" edge="1">
          <mxGeometry x="49.99999999999993" y="709.9884259259259" width="100" height="100" as="geometry">
            <mxPoint x="189.99999999999994" y="759.9884259259259" as="sourcePoint" />
            <mxPoint x="139.99999999999994" y="759.9884259259259" as="targetPoint" />
          </mxGeometry>
        </mxCell>
        <mxCell id="87" value="{5..50ms}" style="edgeStyle=elbowEdgeStyle;elbow=horizontal;startArrow=open;endArrow=open;labelPosition=left;align=right" parent="1" edge="1">
          <mxGeometry x="41.44675925925927" y="479.1666666666667" width="100" height="100" as="geometry">
            <mxPoint x="161.44675925925927" y="469.1666666666667" as="sourcePoint" />
            <mxPoint x="161.44675925925927" y="549.1666666666667" as="targetPoint" />
          </mxGeometry>
        </mxCell>
        <mxCell id="88" value="{1..500ms}" style="edgeStyle=elbowEdgeStyle;elbow=horizontal;startArrow=open;endArrow=open;labelPosition=left;align=right" parent="1" edge="1">
          <mxGeometry x="42.89351851851853" y="560" width="100" height="100" as="geometry">
            <mxPoint x="161.44675925925927" y="550" as="sourcePoint" />
            <mxPoint x="161.44675925925927" y="610" as="targetPoint" />
          </mxGeometry>
        </mxCell>
        <mxCell id="89" value="{10..50ms}" style="edgeStyle=elbowEdgeStyle;elbow=horizontal;startArrow=open;endArrow=open;labelPosition=left;align=right" parent="1" edge="1">
          <mxGeometry width="100" height="100" as="geometry">
            <mxPoint x="153.94675925925927" y="700.2777777777778" as="sourcePoint" />
            <mxPoint x="153.94675925925927" y="760.2777777777778" as="targetPoint" />
            <mxPoint x="-4.236111111111107" y="-0.2777777777777883" as="offset" />
          </mxGeometry>
        </mxCell>
      </root>
    </mxGraphModel>
  </diagram>
  <diagram id="KHRYcKc2eqFcz2NYLR5_" name="第 2 页">
    <mxGraphModel dx="2249" dy="1890" grid="1" gridSize="10" guides="1" tooltips="1" connect="1" arrows="1" fold="1" page="1" pageScale="1" pageWidth="827" pageHeight="1169" math="0" shadow="0">
      <root>
        <mxCell id="RjUDKRE0gF6bqGmsJZhz-0" />
        <mxCell id="RjUDKRE0gF6bqGmsJZhz-1" parent="RjUDKRE0gF6bqGmsJZhz-0" />
        <mxCell id="RjUDKRE0gF6bqGmsJZhz-2" value="" style="fillColor=#DEE8FF;strokeColor=none" vertex="1" parent="RjUDKRE0gF6bqGmsJZhz-1">
          <mxGeometry x="-370" y="-230" width="1570" height="800" as="geometry" />
        </mxCell>
        <mxCell id="RjUDKRE0gF6bqGmsJZhz-3" value="" style="fillColor=#CCD5EB" vertex="1" parent="RjUDKRE0gF6bqGmsJZhz-1">
          <mxGeometry x="-270" y="170" width="1460" height="390" as="geometry" />
        </mxCell>
        <mxCell id="RjUDKRE0gF6bqGmsJZhz-4" value="" style="edgeStyle=elbowEdgeStyle;elbow=horizontal;endArrow=none;dashed=1" edge="1" parent="RjUDKRE0gF6bqGmsJZhz-1">
          <mxGeometry x="1050" y="197.8935185185186" width="100" height="100" as="geometry">
            <mxPoint x="944.5" y="370" as="sourcePoint" />
            <mxPoint x="944.5" y="530" as="targetPoint" />
          </mxGeometry>
        </mxCell>
        <mxCell id="RjUDKRE0gF6bqGmsJZhz-5" value="" style="fillColor=#CC4125;strokeColor=#660000" vertex="1" parent="RjUDKRE0gF6bqGmsJZhz-1">
          <mxGeometry x="-210" y="-90" width="10" height="130" as="geometry" />
        </mxCell>
        <mxCell id="RjUDKRE0gF6bqGmsJZhz-6" value="validate()" style="edgeStyle=none;verticalLabelPosition=top;verticalAlign=bottom;labelPosition=left;align=right" edge="1" parent="RjUDKRE0gF6bqGmsJZhz-1">
          <mxGeometry x="-300" y="-190.5" width="100" height="100" as="geometry">
            <mxPoint x="-300" y="-90.5" as="sourcePoint" />
            <mxPoint x="-210" y="-90.5" as="targetPoint" />
          </mxGeometry>
        </mxCell>
        <mxCell id="RjUDKRE0gF6bqGmsJZhz-7" value=":dialog" style="shadow=1;fillColor=#A2C4C9;strokeColor=none" vertex="1" parent="RjUDKRE0gF6bqGmsJZhz-1">
          <mxGeometry x="-257.5" y="-180" width="105" height="50" as="geometry" />
        </mxCell>
        <mxCell id="RjUDKRE0gF6bqGmsJZhz-8" value="" style="fillColor=#CC4125;strokeColor=#660000" vertex="1" parent="RjUDKRE0gF6bqGmsJZhz-1">
          <mxGeometry x="-67.5" y="-60" width="10" height="80" as="geometry" />
        </mxCell>
        <mxCell id="RjUDKRE0gF6bqGmsJZhz-9" value="&lt;&lt;javascript&gt;&gt;&#xa;:Comments" style="shadow=1;fillColor=#A2C4C9;strokeColor=none" vertex="1" parent="RjUDKRE0gF6bqGmsJZhz-1">
          <mxGeometry x="-115" y="-180" width="105" height="50" as="geometry" />
        </mxCell>
        <mxCell id="RjUDKRE0gF6bqGmsJZhz-10" value="" style="edgeStyle=none;endArrow=none;dashed=1" edge="1" source="RjUDKRE0gF6bqGmsJZhz-9" target="RjUDKRE0gF6bqGmsJZhz-8" parent="RjUDKRE0gF6bqGmsJZhz-1">
          <mxGeometry x="-137.6649305555555" y="-75" width="100" height="100" as="geometry">
            <mxPoint x="-62.74112654320987" y="-130" as="sourcePoint" />
            <mxPoint x="-62.42380401234561" y="-75" as="targetPoint" />
          </mxGeometry>
        </mxCell>
        <mxCell id="RjUDKRE0gF6bqGmsJZhz-11" value="validate()" style="edgeStyle=none;verticalLabelPosition=top;verticalAlign=bottom" edge="1" parent="RjUDKRE0gF6bqGmsJZhz-1">
          <mxGeometry x="-190" y="-148" width="100" height="100" as="geometry">
            <mxPoint x="-200" y="-60.5" as="sourcePoint" />
            <mxPoint x="-70" y="-60.5" as="targetPoint" />
          </mxGeometry>
        </mxCell>
        <mxCell id="RjUDKRE0gF6bqGmsJZhz-12" value="" style="edgeStyle=none;verticalLabelPosition=top;verticalAlign=bottom;endArrow=none;startArrow=classic;dashed=1" edge="1" parent="RjUDKRE0gF6bqGmsJZhz-1">
          <mxGeometry x="-190" y="-67.74112654320987" width="100" height="100" as="geometry">
            <mxPoint x="-200" y="19.75887345679007" as="sourcePoint" />
            <mxPoint x="-70" y="19.75887345679007" as="targetPoint" />
          </mxGeometry>
        </mxCell>
        <mxCell id="RjUDKRE0gF6bqGmsJZhz-13" value="" style="edgeStyle=none;verticalLabelPosition=top;verticalAlign=bottom;labelPosition=left;align=right;endArrow=none;startArrow=classic;dashed=1" edge="1" parent="RjUDKRE0gF6bqGmsJZhz-1">
          <mxGeometry x="-300" y="-60.24112654320987" width="100" height="100" as="geometry">
            <mxPoint x="-300" y="39.75887345679007" as="sourcePoint" />
            <mxPoint x="-210" y="39.75887345679007" as="targetPoint" />
          </mxGeometry>
        </mxCell>
        <mxCell id="RjUDKRE0gF6bqGmsJZhz-14" value="&lt;&lt;create&gt;&gt;" style="edgeStyle=none;verticalLabelPosition=top;verticalAlign=bottom;dashed=1" edge="1" parent="RjUDKRE0gF6bqGmsJZhz-1">
          <mxGeometry x="-24.544753086419746" y="-126.08449074074076" width="100" height="100" as="geometry">
            <mxPoint x="-57.5" y="-38.79436728395058" as="sourcePoint" />
            <mxPoint x="52.5" y="-38.79436728395058" as="targetPoint" />
          </mxGeometry>
        </mxCell>
        <mxCell id="RjUDKRE0gF6bqGmsJZhz-15" value="&lt;&lt;javascript&gt;&gt;&#xa;:Proxy" style="shadow=1;fillColor=#A2C4C9;strokeColor=none" vertex="1" parent="RjUDKRE0gF6bqGmsJZhz-1">
          <mxGeometry x="52.28395061728389" y="-70.00000000000003" width="105" height="50" as="geometry" />
        </mxCell>
        <mxCell id="RjUDKRE0gF6bqGmsJZhz-16" value="" style="edgeStyle=none;endArrow=none" edge="1" source="RjUDKRE0gF6bqGmsJZhz-15" target="RjUDKRE0gF6bqGmsJZhz-17" parent="RjUDKRE0gF6bqGmsJZhz-1">
          <mxGeometry x="27.04282407407402" y="30" width="100" height="100" as="geometry">
            <mxPoint x="104.54282407407402" y="-20.00000000000003" as="sourcePoint" />
            <mxPoint x="104.54282407407402" y="-2.842170943040401e-14" as="targetPoint" />
          </mxGeometry>
        </mxCell>
        <mxCell id="RjUDKRE0gF6bqGmsJZhz-17" value="" style="fillColor=#CC4125;strokeColor=#660000" vertex="1" parent="RjUDKRE0gF6bqGmsJZhz-1">
          <mxGeometry x="99.78395061728389" y="4.394290123456813" width="10" height="130" as="geometry" />
        </mxCell>
        <mxCell id="RjUDKRE0gF6bqGmsJZhz-18" value="&lt;&lt;ajax&gt;&gt;" style="edgeStyle=elbowEdgeStyle;elbow=vertical;verticalLabelPosition=top;verticalAlign=bottom" edge="1" source="RjUDKRE0gF6bqGmsJZhz-8" target="RjUDKRE0gF6bqGmsJZhz-17" parent="RjUDKRE0gF6bqGmsJZhz-1">
          <mxGeometry x="-60" y="50" width="100" height="100" as="geometry">
            <mxPoint x="-60" y="150" as="sourcePoint" />
            <mxPoint x="40" y="50" as="targetPoint" />
          </mxGeometry>
        </mxCell>
        <mxCell id="RjUDKRE0gF6bqGmsJZhz-19" value="" style="fillColor=#CC4125;strokeColor=#660000" vertex="1" parent="RjUDKRE0gF6bqGmsJZhz-1">
          <mxGeometry x="260" y="29.394290123456813" width="10" height="80" as="geometry" />
        </mxCell>
        <mxCell id="RjUDKRE0gF6bqGmsJZhz-20" value="&lt;&lt;servlet&gt;&gt;&#xa;:CVSServlet" style="shadow=1;fillColor=#A2C4C9;strokeColor=none" vertex="1" parent="RjUDKRE0gF6bqGmsJZhz-1">
          <mxGeometry x="212.5" y="-180" width="105" height="50" as="geometry" />
        </mxCell>
        <mxCell id="RjUDKRE0gF6bqGmsJZhz-21" value="" style="edgeStyle=none;endArrow=none;dashed=1" edge="1" source="RjUDKRE0gF6bqGmsJZhz-20" target="RjUDKRE0gF6bqGmsJZhz-19" parent="RjUDKRE0gF6bqGmsJZhz-1">
          <mxGeometry x="204.4878472222224" y="-65.00000000000003" width="100" height="100" as="geometry">
            <mxPoint x="264.6527777777778" y="-130" as="sourcePoint" />
            <mxPoint x="264.6527777777778" y="20" as="targetPoint" />
          </mxGeometry>
        </mxCell>
        <mxCell id="RjUDKRE0gF6bqGmsJZhz-22" value="&lt;&lt;service&gt;&gt;&#xa;:CVSService" style="shadow=1;fillColor=#A2C4C9;strokeColor=none" vertex="1" parent="RjUDKRE0gF6bqGmsJZhz-1">
          <mxGeometry x="340" y="-180" width="105" height="50" as="geometry" />
        </mxCell>
        <mxCell id="RjUDKRE0gF6bqGmsJZhz-23" value="" style="edgeStyle=none;endArrow=none;dashed=1" edge="1" source="RjUDKRE0gF6bqGmsJZhz-22" target="RjUDKRE0gF6bqGmsJZhz-24" parent="RjUDKRE0gF6bqGmsJZhz-1">
          <mxGeometry x="317.33506944444457" y="-75" width="100" height="100" as="geometry">
            <mxPoint x="392.25887345679007" y="-130" as="sourcePoint" />
            <mxPoint x="392.5761959876544" y="-75" as="targetPoint" />
          </mxGeometry>
        </mxCell>
        <mxCell id="RjUDKRE0gF6bqGmsJZhz-24" value="" style="fillColor=#CC4125;strokeColor=#660000" vertex="1" parent="RjUDKRE0gF6bqGmsJZhz-1">
          <mxGeometry x="387.4999999999999" y="49.39429012345681" width="10" height="40" as="geometry" />
        </mxCell>
        <mxCell id="RjUDKRE0gF6bqGmsJZhz-25" value="&lt;&lt;ajax&gt;&gt;" style="edgeStyle=elbowEdgeStyle;elbow=vertical;verticalLabelPosition=top;verticalAlign=bottom" edge="1" source="RjUDKRE0gF6bqGmsJZhz-17" target="RjUDKRE0gF6bqGmsJZhz-19" parent="RjUDKRE0gF6bqGmsJZhz-1">
          <mxGeometry x="130" y="30" width="100" height="100" as="geometry">
            <mxPoint x="130" y="130" as="sourcePoint" />
            <mxPoint x="230" y="30" as="targetPoint" />
            <Array as="points">
              <mxPoint x="180" y="30" />
            </Array>
          </mxGeometry>
        </mxCell>
        <mxCell id="RjUDKRE0gF6bqGmsJZhz-26" value="errors" style="edgeStyle=elbowEdgeStyle;elbow=vertical;dashed=1;verticalLabelPosition=bottom;verticalAlign=top" edge="1" source="RjUDKRE0gF6bqGmsJZhz-19" target="RjUDKRE0gF6bqGmsJZhz-17" parent="RjUDKRE0gF6bqGmsJZhz-1">
          <mxGeometry x="140" y="40" width="100" height="100" as="geometry">
            <mxPoint x="119.78395061728384" y="40" as="sourcePoint" />
            <mxPoint x="270" y="40" as="targetPoint" />
            <Array as="points">
              <mxPoint x="183" y="108" />
            </Array>
          </mxGeometry>
        </mxCell>
        <mxCell id="RjUDKRE0gF6bqGmsJZhz-27" value="&lt;&lt;javascript&gt;&gt;&#xa;:GimqRequest&#xa;Batch" style="shadow=1;fillColor=#A2C4C9;strokeColor=none" vertex="1" parent="RjUDKRE0gF6bqGmsJZhz-1">
          <mxGeometry x="542.5" y="-180" width="105" height="50" as="geometry" />
        </mxCell>
        <mxCell id="RjUDKRE0gF6bqGmsJZhz-28" value="" style="edgeStyle=elbowEdgeStyle;elbow=horizontal;endArrow=none;dashed=1" edge="1" source="RjUDKRE0gF6bqGmsJZhz-7" target="RjUDKRE0gF6bqGmsJZhz-5" parent="RjUDKRE0gF6bqGmsJZhz-1">
          <mxGeometry x="-179.99999999999997" y="70" width="100" height="100" as="geometry">
            <mxPoint x="-179.99999999999997" y="170" as="sourcePoint" />
            <mxPoint x="-80" y="70" as="targetPoint" />
          </mxGeometry>
        </mxCell>
        <mxCell id="RjUDKRE0gF6bqGmsJZhz-29" value="validate()" style="edgeStyle=elbowEdgeStyle;elbow=vertical;verticalLabelPosition=top;verticalAlign=bottom" edge="1" parent="RjUDKRE0gF6bqGmsJZhz-1">
          <mxGeometry x="140" y="21.736111111111086" width="100" height="100" as="geometry">
            <mxPoint x="270" y="51.1304012345679" as="sourcePoint" />
            <mxPoint x="387.5" y="51.1304012345679" as="targetPoint" />
            <Array as="points" />
          </mxGeometry>
        </mxCell>
        <mxCell id="RjUDKRE0gF6bqGmsJZhz-30" value="errors" style="edgeStyle=elbowEdgeStyle;elbow=vertical;dashed=1;verticalLabelPosition=bottom;verticalAlign=top" edge="1" parent="RjUDKRE0gF6bqGmsJZhz-1">
          <mxGeometry x="150" y="69.65277777777777" width="100" height="100" as="geometry">
            <mxPoint x="387.5" y="89.04706790123464" as="sourcePoint" />
            <mxPoint x="270" y="89.04706790123464" as="targetPoint" />
            <Array as="points" />
          </mxGeometry>
        </mxCell>
        <mxCell id="RjUDKRE0gF6bqGmsJZhz-31" value="" style="edgeStyle=elbowEdgeStyle;elbow=horizontal;endArrow=none;dashed=1" edge="1" parent="RjUDKRE0gF6bqGmsJZhz-1">
          <mxGeometry x="522.2588734567901" width="100" height="100" as="geometry">
            <mxPoint x="392.25887345678984" y="89.39429012345681" as="sourcePoint" />
            <mxPoint x="392.25887345678984" y="130" as="targetPoint" />
            <Array as="points">
              <mxPoint x="392.25887345679007" y="110" />
            </Array>
          </mxGeometry>
        </mxCell>
        <mxCell id="RjUDKRE0gF6bqGmsJZhz-32" value="" style="ellipse;fillColor=none" vertex="1" parent="RjUDKRE0gF6bqGmsJZhz-1">
          <mxGeometry x="392.5000000000001" y="64.39429012345681" width="9.999999999999886" height="10" as="geometry" />
        </mxCell>
        <mxCell id="RjUDKRE0gF6bqGmsJZhz-33" value=" - user&#xa; validation&#xa;&#xa; - password check" style="shape=note;align=left" vertex="1" parent="RjUDKRE0gF6bqGmsJZhz-1">
          <mxGeometry x="419.9729938271605" y="-59.826388888888886" width="120.02700617283949" height="109.82638888888889" as="geometry" />
        </mxCell>
        <mxCell id="RjUDKRE0gF6bqGmsJZhz-34" value="" style="edgeStyle=none;endArrow=none;dashed=1" edge="1" source="RjUDKRE0gF6bqGmsJZhz-33" target="RjUDKRE0gF6bqGmsJZhz-32" parent="RjUDKRE0gF6bqGmsJZhz-1">
          <mxGeometry x="620" y="-60" width="100" height="100" as="geometry">
            <mxPoint x="620" y="40" as="sourcePoint" />
            <mxPoint x="720" y="-60" as="targetPoint" />
          </mxGeometry>
        </mxCell>
        <mxCell id="RjUDKRE0gF6bqGmsJZhz-35" value="" style="fillColor=#CC4125;strokeColor=#660000" vertex="1" parent="RjUDKRE0gF6bqGmsJZhz-1">
          <mxGeometry x="-210" y="120" width="10" height="220" as="geometry" />
        </mxCell>
        <mxCell id="RjUDKRE0gF6bqGmsJZhz-36" value="             &lt;&lt;callback&gt;&gt;                                " style="edgeStyle=elbowEdgeStyle;elbow=vertical;dashed=0;verticalLabelPosition=top;verticalAlign=bottom;align=right" edge="1" source="RjUDKRE0gF6bqGmsJZhz-17" target="RjUDKRE0gF6bqGmsJZhz-35" parent="RjUDKRE0gF6bqGmsJZhz-1">
          <mxGeometry x="-220" y="89.75887345679007" width="100" height="100" as="geometry">
            <mxPoint x="90" y="70" as="sourcePoint" />
            <mxPoint x="-190" y="130" as="targetPoint" />
            <Array as="points" />
          </mxGeometry>
        </mxCell>
        <mxCell id="RjUDKRE0gF6bqGmsJZhz-37" value="" style="edgeStyle=none;dashed=1;endArrow=none" edge="1" source="RjUDKRE0gF6bqGmsJZhz-5" target="RjUDKRE0gF6bqGmsJZhz-35" parent="RjUDKRE0gF6bqGmsJZhz-1">
          <mxGeometry x="-360" y="60" width="100" height="100" as="geometry">
            <mxPoint x="-360" y="160" as="sourcePoint" />
            <mxPoint x="-260" y="60" as="targetPoint" />
          </mxGeometry>
        </mxCell>
        <mxCell id="RjUDKRE0gF6bqGmsJZhz-38" value="" style="edgeStyle=elbowEdgeStyle;elbow=vertical;endArrow=none" edge="1" source="RjUDKRE0gF6bqGmsJZhz-35" parent="RjUDKRE0gF6bqGmsJZhz-1">
          <mxGeometry x="-350" y="70" width="100" height="100" as="geometry">
            <mxPoint x="-350" y="170" as="sourcePoint" />
            <mxPoint x="-260" y="120" as="targetPoint" />
          </mxGeometry>
        </mxCell>
        <mxCell id="RjUDKRE0gF6bqGmsJZhz-39" value="{100..600ms}" style="edgeStyle=elbowEdgeStyle;elbow=horizontal;startArrow=open;endArrow=open;labelPosition=left;align=right" edge="1" parent="RjUDKRE0gF6bqGmsJZhz-1">
          <mxGeometry x="-348.79436728395063" y="50" width="100" height="100" as="geometry">
            <mxPoint x="-228.79436728395058" y="40" as="sourcePoint" />
            <mxPoint x="-228.79436728395058" y="120" as="targetPoint" />
          </mxGeometry>
        </mxCell>
        <mxCell id="RjUDKRE0gF6bqGmsJZhz-40" value="" style="fillColor=#CC4125;strokeColor=#660000" vertex="1" parent="RjUDKRE0gF6bqGmsJZhz-1">
          <mxGeometry x="-67.5" y="224.16666666666669" width="10" height="95.83333333333331" as="geometry" />
        </mxCell>
        <mxCell id="RjUDKRE0gF6bqGmsJZhz-41" value="" style="fillColor=#CC4125;strokeColor=#660000" vertex="1" parent="RjUDKRE0gF6bqGmsJZhz-1">
          <mxGeometry x="590" y="228.33333333333331" width="10" height="81.66666666666669" as="geometry" />
        </mxCell>
        <mxCell id="RjUDKRE0gF6bqGmsJZhz-42" value="" style="edgeStyle=none;endArrow=none;dashed=1" edge="1" source="RjUDKRE0gF6bqGmsJZhz-27" target="RjUDKRE0gF6bqGmsJZhz-41" parent="RjUDKRE0gF6bqGmsJZhz-1">
          <mxGeometry x="546.5711805555559" y="-35" width="100" height="100" as="geometry">
            <mxPoint x="621.7361111111113" y="-90" as="sourcePoint" />
            <mxPoint x="621.7361111111113" y="89.39429012345681" as="targetPoint" />
          </mxGeometry>
        </mxCell>
        <mxCell id="RjUDKRE0gF6bqGmsJZhz-43" value="post_comments()" style="edgeStyle=elbowEdgeStyle;elbow=vertical;verticalLabelPosition=top;verticalAlign=bottom" edge="1" parent="RjUDKRE0gF6bqGmsJZhz-1">
          <mxGeometry x="-197.5" y="229.58333333333337" width="100" height="100" as="geometry">
            <mxPoint x="-200" y="229.58333333333348" as="sourcePoint" />
            <mxPoint x="-67.5" y="229.58333333333348" as="targetPoint" />
            <Array as="points" />
          </mxGeometry>
        </mxCell>
        <mxCell id="RjUDKRE0gF6bqGmsJZhz-44" value="" style="edgeStyle=none;endArrow=none;dashed=1" edge="1" source="RjUDKRE0gF6bqGmsJZhz-8" target="RjUDKRE0gF6bqGmsJZhz-40" parent="RjUDKRE0gF6bqGmsJZhz-1">
          <mxGeometry x="-33.428819444444116" y="99.6971450617284" width="100" height="100" as="geometry">
            <mxPoint x="41.7361111111112" y="44.697145061728406" as="sourcePoint" />
            <mxPoint x="41.7361111111112" y="224.09143518518522" as="targetPoint" />
          </mxGeometry>
        </mxCell>
        <mxCell id="RjUDKRE0gF6bqGmsJZhz-45" value="BeginRequest()" style="edgeStyle=elbowEdgeStyle;elbow=vertical;verticalLabelPosition=top;verticalAlign=bottom" edge="1" parent="RjUDKRE0gF6bqGmsJZhz-1">
          <mxGeometry x="120" y="196.8055555555556" width="100" height="100" as="geometry">
            <mxPoint x="-57.5" y="237.56944444444434" as="sourcePoint" />
            <mxPoint x="590" y="237.56944444444434" as="targetPoint" />
            <Array as="points" />
          </mxGeometry>
        </mxCell>
        <mxCell id="RjUDKRE0gF6bqGmsJZhz-46" value="" style="edgeStyle=elbowEdgeStyle;elbow=vertical;dashed=1;verticalLabelPosition=bottom;verticalAlign=top" edge="1" parent="RjUDKRE0gF6bqGmsJZhz-1">
          <mxGeometry x="120" y="309.07793209876536" width="100" height="100" as="geometry">
            <mxPoint x="590" y="301.7361111111111" as="sourcePoint" />
            <mxPoint x="-57.5" y="301.7361111111111" as="targetPoint" />
            <Array as="points" />
          </mxGeometry>
        </mxCell>
        <mxCell id="RjUDKRE0gF6bqGmsJZhz-47" value="&lt;&lt;javascript&gt;&gt;&#xa;:Proxy" style="shadow=1;fillColor=#A2C4C9;strokeColor=none" vertex="1" parent="RjUDKRE0gF6bqGmsJZhz-1">
          <mxGeometry x="680" y="222.08333333333337" width="105" height="50" as="geometry" />
        </mxCell>
        <mxCell id="RjUDKRE0gF6bqGmsJZhz-48" value="" style="edgeStyle=none;endArrow=none;dashed=1" edge="1" source="RjUDKRE0gF6bqGmsJZhz-47" target="RjUDKRE0gF6bqGmsJZhz-49" parent="RjUDKRE0gF6bqGmsJZhz-1">
          <mxGeometry x="794.0711805555559" y="140.08680555555554" width="100" height="100" as="geometry">
            <mxPoint x="869.2361111111113" y="85.08680555555554" as="sourcePoint" />
            <mxPoint x="940" y="205.08680555555554" as="targetPoint" />
          </mxGeometry>
        </mxCell>
        <mxCell id="RjUDKRE0gF6bqGmsJZhz-49" value="" style="fillColor=#CC4125;strokeColor=#660000" vertex="1" parent="RjUDKRE0gF6bqGmsJZhz-1">
          <mxGeometry x="727.5" y="290" width="10" height="90" as="geometry" />
        </mxCell>
        <mxCell id="RjUDKRE0gF6bqGmsJZhz-50" value="" style="fillColor=#CC4125;strokeColor=#660000" vertex="1" parent="RjUDKRE0gF6bqGmsJZhz-1">
          <mxGeometry x="940" y="300" width="10" height="70" as="geometry" />
        </mxCell>
        <mxCell id="RjUDKRE0gF6bqGmsJZhz-51" value="&lt;&lt;create&gt;&gt;" style="edgeStyle=elbowEdgeStyle;elbow=vertical;verticalLabelPosition=top;verticalAlign=bottom;dashed=1" edge="1" source="RjUDKRE0gF6bqGmsJZhz-41" target="RjUDKRE0gF6bqGmsJZhz-47" parent="RjUDKRE0gF6bqGmsJZhz-1">
          <mxGeometry x="491.25" y="82.5" width="100" height="100" as="geometry">
            <mxPoint x="621.25" y="111.89429012345681" as="sourcePoint" />
            <mxPoint x="738.75" y="111.89429012345681" as="targetPoint" />
            <Array as="points" />
          </mxGeometry>
        </mxCell>
        <mxCell id="RjUDKRE0gF6bqGmsJZhz-52" value="&lt;&lt;ajax&gt;&gt;" style="edgeStyle=elbowEdgeStyle;elbow=vertical;verticalLabelPosition=top;verticalAlign=bottom" edge="1" source="RjUDKRE0gF6bqGmsJZhz-41" target="RjUDKRE0gF6bqGmsJZhz-49" parent="RjUDKRE0gF6bqGmsJZhz-1">
          <mxGeometry x="655" y="119.5" width="100" height="100" as="geometry">
            <mxPoint x="634.7839506172838" y="119.5" as="sourcePoint" />
            <mxPoint x="785" y="119.5" as="targetPoint" />
            <Array as="points" />
          </mxGeometry>
        </mxCell>
        <mxCell id="RjUDKRE0gF6bqGmsJZhz-53" value="postComments()" style="edgeStyle=elbowEdgeStyle;elbow=vertical;verticalLabelPosition=top;verticalAlign=bottom" edge="1" parent="RjUDKRE0gF6bqGmsJZhz-1">
          <mxGeometry x="815" y="69.5" width="100" height="100" as="geometry">
            <mxPoint x="737.5" y="302.5" as="sourcePoint" />
            <mxPoint x="940" y="302.5" as="targetPoint" />
            <Array as="points" />
          </mxGeometry>
        </mxCell>
        <mxCell id="RjUDKRE0gF6bqGmsJZhz-54" value="&lt;&lt;json&gt;&gt;" style="edgeStyle=elbowEdgeStyle;elbow=vertical;dashed=1;verticalLabelPosition=bottom;verticalAlign=top" edge="1" parent="RjUDKRE0gF6bqGmsJZhz-1">
          <mxGeometry x="665" y="156" width="100" height="100" as="geometry">
            <mxPoint x="940" y="366.5" as="sourcePoint" />
            <mxPoint x="737.5" y="366.5" as="targetPoint" />
            <Array as="points" />
          </mxGeometry>
        </mxCell>
        <mxCell id="RjUDKRE0gF6bqGmsJZhz-55" value="&lt;&lt;service&gt;&gt;&#xa;:GimqService" style="shadow=1;fillColor=#A2C4C9;strokeColor=none" vertex="1" parent="RjUDKRE0gF6bqGmsJZhz-1">
          <mxGeometry x="892.5" y="-180" width="105" height="50" as="geometry" />
        </mxCell>
        <mxCell id="RjUDKRE0gF6bqGmsJZhz-56" value="" style="edgeStyle=none;endArrow=none;dashed=1" edge="1" source="RjUDKRE0gF6bqGmsJZhz-55" target="RjUDKRE0gF6bqGmsJZhz-50" parent="RjUDKRE0gF6bqGmsJZhz-1">
          <mxGeometry x="764.0711805555559" y="-30" width="100" height="100" as="geometry">
            <mxPoint x="812.5" y="-125" as="sourcePoint" />
            <mxPoint x="812.5" y="205" as="targetPoint" />
          </mxGeometry>
        </mxCell>
        <mxCell id="RjUDKRE0gF6bqGmsJZhz-57" value="" style="fillColor=#CC4125;strokeColor=#660000" vertex="1" parent="RjUDKRE0gF6bqGmsJZhz-1">
          <mxGeometry x="-210" y="360" width="10" height="130" as="geometry" />
        </mxCell>
        <mxCell id="RjUDKRE0gF6bqGmsJZhz-58" value="" style="edgeStyle=elbowEdgeStyle;elbow=vertical;dashed=1;verticalLabelPosition=bottom;verticalAlign=top" edge="1" parent="RjUDKRE0gF6bqGmsJZhz-1">
          <mxGeometry x="97.50000000000006" y="424.3418209876543" width="100" height="100" as="geometry">
            <mxPoint x="-67.5" y="309.5" as="sourcePoint" />
            <mxPoint x="-200" y="309.5" as="targetPoint" />
            <Array as="points" />
          </mxGeometry>
        </mxCell>
        <mxCell id="RjUDKRE0gF6bqGmsJZhz-59" value="&lt;&lt;callback&gt;&gt;" style="edgeStyle=elbowEdgeStyle;elbow=vertical;dashed=1;verticalLabelPosition=bottom;verticalAlign=bottom" edge="1" source="RjUDKRE0gF6bqGmsJZhz-49" target="RjUDKRE0gF6bqGmsJZhz-57" parent="RjUDKRE0gF6bqGmsJZhz-1">
          <mxGeometry x="130" y="319.07793209876536" width="100" height="100" as="geometry">
            <mxPoint x="600" y="311.7361111111111" as="sourcePoint" />
            <mxPoint x="-47.50000000000006" y="311.7361111111111" as="targetPoint" />
            <Array as="points" />
          </mxGeometry>
        </mxCell>
        <mxCell id="RjUDKRE0gF6bqGmsJZhz-60" value="rt submit_changes" style="rounded=1;fontStyle=1;fillColor=#FFD966;strokeColor=none" vertex="1" parent="RjUDKRE0gF6bqGmsJZhz-1">
          <mxGeometry x="-360" y="-220" width="150" height="30" as="geometry" />
        </mxCell>
        <mxCell id="RjUDKRE0gF6bqGmsJZhz-61" value="opt" style="rounded=1;fontStyle=1;fillColor=#FFD966;strokeColor=none" vertex="1" parent="RjUDKRE0gF6bqGmsJZhz-1">
          <mxGeometry x="-257.5" y="180" width="87.5" height="30" as="geometry" />
        </mxCell>
        <mxCell id="RjUDKRE0gF6bqGmsJZhz-62" value="Handle errors from Gimq" style="fillColor=#BFC8DB" vertex="1" parent="RjUDKRE0gF6bqGmsJZhz-1">
          <mxGeometry x="-220" y="385" width="310" height="60.55555555555554" as="geometry" />
        </mxCell>
        <mxCell id="RjUDKRE0gF6bqGmsJZhz-63" value="ref" style="rounded=1;fontStyle=1;fillColor=#FFD966;strokeColor=none" vertex="1" parent="RjUDKRE0gF6bqGmsJZhz-1">
          <mxGeometry x="-213.75" y="392.8935185185186" width="53.75" height="25" as="geometry" />
        </mxCell>
        <mxCell id="RjUDKRE0gF6bqGmsJZhz-64" value="" style="align=left;fillColor=#BFC8DB" vertex="1" parent="RjUDKRE0gF6bqGmsJZhz-1">
          <mxGeometry x="-220.00000000000003" y="459.7222222222223" width="1201.1944444444443" height="60.55555555555554" as="geometry" />
        </mxCell>
        <mxCell id="RjUDKRE0gF6bqGmsJZhz-65" value="ref" style="rounded=1;fontStyle=1;fillColor=#FFD966;strokeColor=none" vertex="1" parent="RjUDKRE0gF6bqGmsJZhz-1">
          <mxGeometry x="-213.75000000000003" y="467.6157407407409" width="53.75" height="25" as="geometry" />
        </mxCell>
        <mxCell id="RjUDKRE0gF6bqGmsJZhz-66" value="Request all changes" style="text;align=left" vertex="1" parent="RjUDKRE0gF6bqGmsJZhz-1">
          <mxGeometry x="-141.94444444444446" y="480.11574074074076" width="351.80555555555554" height="26" as="geometry" />
        </mxCell>
        <mxCell id="RjUDKRE0gF6bqGmsJZhz-67" value="" style="edgeStyle=elbowEdgeStyle;elbow=vertical;endArrow=none" edge="1" parent="RjUDKRE0gF6bqGmsJZhz-1">
          <mxGeometry x="-350" y="179.7106481481482" width="100" height="100" as="geometry">
            <mxPoint x="-210" y="229.71064814814827" as="sourcePoint" />
            <mxPoint x="-260" y="229.71064814814827" as="targetPoint" />
          </mxGeometry>
        </mxCell>
        <mxCell id="RjUDKRE0gF6bqGmsJZhz-68" value="" style="edgeStyle=elbowEdgeStyle;elbow=vertical;endArrow=none" edge="1" parent="RjUDKRE0gF6bqGmsJZhz-1">
          <mxGeometry x="-350" y="259.71064814814815" width="100" height="100" as="geometry">
            <mxPoint x="-210" y="309.71064814814827" as="sourcePoint" />
            <mxPoint x="-260" y="309.71064814814827" as="targetPoint" />
          </mxGeometry>
        </mxCell>
        <mxCell id="RjUDKRE0gF6bqGmsJZhz-69" value="" style="edgeStyle=elbowEdgeStyle;elbow=vertical;endArrow=none" edge="1" parent="RjUDKRE0gF6bqGmsJZhz-1">
          <mxGeometry x="-350" y="319.71064814814815" width="100" height="100" as="geometry">
            <mxPoint x="-210" y="369.71064814814827" as="sourcePoint" />
            <mxPoint x="-260" y="369.71064814814827" as="targetPoint" />
          </mxGeometry>
        </mxCell>
        <mxCell id="RjUDKRE0gF6bqGmsJZhz-70" value="" style="edgeStyle=elbowEdgeStyle;elbow=vertical;endArrow=none" edge="1" parent="RjUDKRE0gF6bqGmsJZhz-1">
          <mxGeometry x="-360" y="409.43287037037044" width="100" height="100" as="geometry">
            <mxPoint x="-220" y="459.43287037037044" as="sourcePoint" />
            <mxPoint x="-270" y="459.43287037037044" as="targetPoint" />
          </mxGeometry>
        </mxCell>
        <mxCell id="RjUDKRE0gF6bqGmsJZhz-71" value="" style="edgeStyle=elbowEdgeStyle;elbow=vertical;endArrow=none" edge="1" parent="RjUDKRE0gF6bqGmsJZhz-1">
          <mxGeometry x="-360.00000000000006" y="469.98842592592587" width="100" height="100" as="geometry">
            <mxPoint x="-220" y="519.9884259259259" as="sourcePoint" />
            <mxPoint x="-270" y="519.9884259259259" as="targetPoint" />
          </mxGeometry>
        </mxCell>
        <mxCell id="RjUDKRE0gF6bqGmsJZhz-72" value="{5..50ms}" style="edgeStyle=elbowEdgeStyle;elbow=horizontal;startArrow=open;endArrow=open;labelPosition=left;align=right" edge="1" parent="RjUDKRE0gF6bqGmsJZhz-1">
          <mxGeometry x="-368.55324074074076" y="239.16666666666669" width="100" height="100" as="geometry">
            <mxPoint x="-248.55324074074065" y="229.16666666666674" as="sourcePoint" />
            <mxPoint x="-248.55324074074065" y="309.16666666666674" as="targetPoint" />
          </mxGeometry>
        </mxCell>
        <mxCell id="RjUDKRE0gF6bqGmsJZhz-73" value="{1..500ms}" style="edgeStyle=elbowEdgeStyle;elbow=horizontal;startArrow=open;endArrow=open;labelPosition=left;align=right" edge="1" parent="RjUDKRE0gF6bqGmsJZhz-1">
          <mxGeometry x="-367.10648148148147" y="320" width="100" height="100" as="geometry">
            <mxPoint x="-248.55324074074065" y="310" as="sourcePoint" />
            <mxPoint x="-248.55324074074065" y="370" as="targetPoint" />
          </mxGeometry>
        </mxCell>
        <mxCell id="RjUDKRE0gF6bqGmsJZhz-74" value="{10..50ms}" style="edgeStyle=elbowEdgeStyle;elbow=horizontal;startArrow=open;endArrow=open;labelPosition=left;align=right" edge="1" parent="RjUDKRE0gF6bqGmsJZhz-1">
          <mxGeometry x="-410" y="-240" width="100" height="100" as="geometry">
            <mxPoint x="-256.05324074074065" y="460.2777777777778" as="sourcePoint" />
            <mxPoint x="-256.05324074074065" y="520.2777777777778" as="targetPoint" />
            <mxPoint x="-4.236111111111107" y="-0.2777777777777883" as="offset" />
          </mxGeometry>
        </mxCell>
      </root>
    </mxGraphModel>
  </diagram>
</mxfile>
